# xmcd CD database file
#
# Track frame offsets:
#	150
#	46962
#	71784
#	87703
#	118513
#	143065
#	163871
#	191574
#	214252
#	232868
#	253947
#	273345
#	294180
#	322822
#
# Disc length: 4532 seconds
#
# Revision: 0
# Processed by: cddbd v1.5.2PL0 Copyright (c) Steve Scherf et al.
# Submitted via: CDex 1.51
#
DISCID=d011b20e
DTITLE=Hector Lavoe - El Cantante - The Originals
DYEAR=2007
DGENRE=Salsa
TTITLE0=01. El Cantante
TTITLE1=02. Mi Gente
TTITLE2=03. Che Che Cole
TTITLE3=04. Periodico De Ayer
TTITLE4=05. El Dia De Suerte
TTITLE5=06. Que Lio
TTITLE6=07. Aguanile
TTITLE7=08. Todo Tiene Su Final
TTITLE8=09. Tu Bien Lo Sabes
TTITLE9=10. Plato De Segunda Mesa
TTITLE10=11. No Hay Quien Te Aguante
TTITLE11=12. Paraiso de Dulzura
TTITLE12=13. Llore
TTITLE13=14. Mi Gente
EXTD=YEAR: 2007
EXTT0=
EXTT1=
EXTT2=
EXTT3=
EXTT4=
EXTT5=
EXTT6=
EXTT7=
EXTT8=
EXTT9=
EXTT10=
EXTT11=
EXTT12=
EXTT13=
PLAYORDER=
